<mxfile host="app.diagrams.net" agent="Mozilla/5.0 (Macintosh; Intel Mac OS X 10_15_7) AppleWebKit/605.1.15 (KHTML, like Gecko) Version/18.6 Safari/605.1.15" version="28.1.1">
  <diagram name="P치gina-1" id="9W_9Sp7u_PCh02WyK_mp">
    <mxGraphModel dx="1665" dy="818" grid="1" gridSize="10" guides="1" tooltips="1" connect="1" arrows="1" fold="1" page="1" pageScale="1" pageWidth="1169" pageHeight="1654" math="0" shadow="0">
      <root>
        <mxCell id="0" />
        <mxCell id="1" parent="0" />
        <mxCell id="uW_plnHV8jiXRTv0YHAk-1" value="Cliente" style="shape=umlActor;verticalLabelPosition=bottom;verticalAlign=top;html=1;outlineConnect=0;" vertex="1" parent="1">
          <mxGeometry x="10" y="310" width="50" height="100" as="geometry" />
        </mxCell>
        <mxCell id="uW_plnHV8jiXRTv0YHAk-3" value="" style="rounded=0;whiteSpace=wrap;html=1;rotation=90;" vertex="1" parent="1">
          <mxGeometry x="90" y="100" width="730" height="550" as="geometry" />
        </mxCell>
        <mxCell id="uW_plnHV8jiXRTv0YHAk-4" value="App Hotel Canino Club del Can" style="text;html=1;align=center;verticalAlign=middle;resizable=0;points=[];autosize=1;strokeColor=none;fillColor=none;fontSize=16;" vertex="1" parent="1">
          <mxGeometry x="170" y="10" width="250" height="30" as="geometry" />
        </mxCell>
        <mxCell id="uW_plnHV8jiXRTv0YHAk-5" value="Registro Cliente&lt;div&gt;Nuevo&lt;br&gt;&lt;/div&gt;" style="ellipse;whiteSpace=wrap;html=1;aspect=fixed;" vertex="1" parent="1">
          <mxGeometry x="210" y="80" width="80" height="80" as="geometry" />
        </mxCell>
        <mxCell id="uW_plnHV8jiXRTv0YHAk-6" value="Acceso Cliente" style="ellipse;whiteSpace=wrap;html=1;aspect=fixed;" vertex="1" parent="1">
          <mxGeometry x="210" y="170" width="80" height="80" as="geometry" />
        </mxCell>
        <mxCell id="uW_plnHV8jiXRTv0YHAk-9" value="Gestionar Perfil" style="ellipse;whiteSpace=wrap;html=1;aspect=fixed;" vertex="1" parent="1">
          <mxGeometry x="210" y="350" width="80" height="80" as="geometry" />
        </mxCell>
        <mxCell id="uW_plnHV8jiXRTv0YHAk-10" value="Gestionar Mascotas" style="ellipse;whiteSpace=wrap;html=1;aspect=fixed;" vertex="1" parent="1">
          <mxGeometry x="210" y="440" width="80" height="80" as="geometry" />
        </mxCell>
        <mxCell id="uW_plnHV8jiXRTv0YHAk-11" value="Solicitar Reservas / Servicios" style="ellipse;whiteSpace=wrap;html=1;aspect=fixed;" vertex="1" parent="1">
          <mxGeometry x="210" y="530" width="80" height="80" as="geometry" />
        </mxCell>
        <mxCell id="uW_plnHV8jiXRTv0YHAk-12" value="Ver Informaci칩n / Contacto Hotel" style="ellipse;whiteSpace=wrap;html=1;aspect=fixed;" vertex="1" parent="1">
          <mxGeometry x="210" y="620" width="80" height="80" as="geometry" />
        </mxCell>
        <mxCell id="uW_plnHV8jiXRTv0YHAk-17" value="" style="endArrow=none;html=1;rounded=0;exitX=0.5;exitY=0.5;exitDx=0;exitDy=0;exitPerimeter=0;" edge="1" parent="1" source="uW_plnHV8jiXRTv0YHAk-1">
          <mxGeometry width="50" height="50" relative="1" as="geometry">
            <mxPoint x="160" y="180" as="sourcePoint" />
            <mxPoint x="210" y="130" as="targetPoint" />
          </mxGeometry>
        </mxCell>
        <mxCell id="uW_plnHV8jiXRTv0YHAk-18" value="" style="endArrow=none;html=1;rounded=0;entryX=0;entryY=0.5;entryDx=0;entryDy=0;exitX=0.5;exitY=0.5;exitDx=0;exitDy=0;exitPerimeter=0;" edge="1" parent="1" source="uW_plnHV8jiXRTv0YHAk-1" target="uW_plnHV8jiXRTv0YHAk-6">
          <mxGeometry width="50" height="50" relative="1" as="geometry">
            <mxPoint x="65" y="350" as="sourcePoint" />
            <mxPoint x="440" y="380" as="targetPoint" />
          </mxGeometry>
        </mxCell>
        <mxCell id="uW_plnHV8jiXRTv0YHAk-19" value="" style="endArrow=none;html=1;rounded=0;entryX=0;entryY=0.5;entryDx=0;entryDy=0;exitX=0.5;exitY=0.5;exitDx=0;exitDy=0;exitPerimeter=0;" edge="1" parent="1" source="uW_plnHV8jiXRTv0YHAk-1" target="uW_plnHV8jiXRTv0YHAk-9">
          <mxGeometry width="50" height="50" relative="1" as="geometry">
            <mxPoint x="390" y="430" as="sourcePoint" />
            <mxPoint x="440" y="380" as="targetPoint" />
          </mxGeometry>
        </mxCell>
        <mxCell id="uW_plnHV8jiXRTv0YHAk-20" value="" style="endArrow=none;html=1;rounded=0;entryX=0;entryY=0.5;entryDx=0;entryDy=0;exitX=0.5;exitY=0.5;exitDx=0;exitDy=0;exitPerimeter=0;" edge="1" parent="1" source="uW_plnHV8jiXRTv0YHAk-1" target="uW_plnHV8jiXRTv0YHAk-10">
          <mxGeometry width="50" height="50" relative="1" as="geometry">
            <mxPoint x="390" y="430" as="sourcePoint" />
            <mxPoint x="440" y="380" as="targetPoint" />
          </mxGeometry>
        </mxCell>
        <mxCell id="uW_plnHV8jiXRTv0YHAk-21" value="" style="endArrow=none;html=1;rounded=0;entryX=0;entryY=0.5;entryDx=0;entryDy=0;exitX=0.5;exitY=0.5;exitDx=0;exitDy=0;exitPerimeter=0;" edge="1" parent="1" source="uW_plnHV8jiXRTv0YHAk-1" target="uW_plnHV8jiXRTv0YHAk-11">
          <mxGeometry width="50" height="50" relative="1" as="geometry">
            <mxPoint x="390" y="430" as="sourcePoint" />
            <mxPoint x="440" y="380" as="targetPoint" />
          </mxGeometry>
        </mxCell>
        <mxCell id="uW_plnHV8jiXRTv0YHAk-22" value="" style="endArrow=none;html=1;rounded=0;entryX=0;entryY=0;entryDx=0;entryDy=0;exitX=0.5;exitY=0.5;exitDx=0;exitDy=0;exitPerimeter=0;" edge="1" parent="1" source="uW_plnHV8jiXRTv0YHAk-1" target="uW_plnHV8jiXRTv0YHAk-12">
          <mxGeometry width="50" height="50" relative="1" as="geometry">
            <mxPoint x="390" y="430" as="sourcePoint" />
            <mxPoint x="440" y="380" as="targetPoint" />
          </mxGeometry>
        </mxCell>
        <mxCell id="uW_plnHV8jiXRTv0YHAk-23" value="Administrador" style="shape=umlActor;verticalLabelPosition=bottom;verticalAlign=top;html=1;outlineConnect=0;" vertex="1" parent="1">
          <mxGeometry x="830" y="310" width="50" height="100" as="geometry" />
        </mxCell>
        <mxCell id="uW_plnHV8jiXRTv0YHAk-25" value="" style="endArrow=none;html=1;rounded=0;entryX=0.5;entryY=0.5;entryDx=0;entryDy=0;entryPerimeter=0;exitX=1;exitY=0.5;exitDx=0;exitDy=0;" edge="1" parent="1" source="uW_plnHV8jiXRTv0YHAk-39" target="uW_plnHV8jiXRTv0YHAk-23">
          <mxGeometry width="50" height="50" relative="1" as="geometry">
            <mxPoint x="390" y="430" as="sourcePoint" />
            <mxPoint x="440" y="380" as="targetPoint" />
          </mxGeometry>
        </mxCell>
        <mxCell id="uW_plnHV8jiXRTv0YHAk-29" value="Validaci칩n&lt;div&gt;campos&lt;/div&gt;&lt;div&gt;correctos&lt;/div&gt;" style="ellipse;whiteSpace=wrap;html=1;aspect=fixed;" vertex="1" parent="1">
          <mxGeometry x="430" y="50" width="80" height="80" as="geometry" />
        </mxCell>
        <mxCell id="uW_plnHV8jiXRTv0YHAk-30" value="&amp;lt;&amp;lt;include&amp;gt;&amp;gt;" style="endArrow=open;endSize=12;dashed=1;html=1;rounded=0;exitX=1;exitY=0.5;exitDx=0;exitDy=0;entryX=0;entryY=0.5;entryDx=0;entryDy=0;" edge="1" parent="1" source="uW_plnHV8jiXRTv0YHAk-5" target="uW_plnHV8jiXRTv0YHAk-29">
          <mxGeometry x="-0.1321" y="3" width="160" relative="1" as="geometry">
            <mxPoint x="550" y="400" as="sourcePoint" />
            <mxPoint x="710" y="400" as="targetPoint" />
            <mxPoint as="offset" />
          </mxGeometry>
        </mxCell>
        <mxCell id="uW_plnHV8jiXRTv0YHAk-31" value="Acceso Administrador" style="ellipse;whiteSpace=wrap;html=1;aspect=fixed;" vertex="1" parent="1">
          <mxGeometry x="630" y="40" width="80" height="80" as="geometry" />
        </mxCell>
        <mxCell id="uW_plnHV8jiXRTv0YHAk-32" value="" style="endArrow=none;html=1;rounded=0;entryX=0.5;entryY=0.5;entryDx=0;entryDy=0;entryPerimeter=0;exitX=1;exitY=1;exitDx=0;exitDy=0;" edge="1" parent="1" source="uW_plnHV8jiXRTv0YHAk-31" target="uW_plnHV8jiXRTv0YHAk-23">
          <mxGeometry relative="1" as="geometry">
            <mxPoint x="790" y="170" as="sourcePoint" />
            <mxPoint x="945" y="310" as="targetPoint" />
          </mxGeometry>
        </mxCell>
        <mxCell id="uW_plnHV8jiXRTv0YHAk-33" value="" style="endArrow=none;html=1;rounded=0;exitX=1;exitY=0.5;exitDx=0;exitDy=0;entryX=0.5;entryY=0.5;entryDx=0;entryDy=0;entryPerimeter=0;" edge="1" parent="1" source="uW_plnHV8jiXRTv0YHAk-9" target="uW_plnHV8jiXRTv0YHAk-23">
          <mxGeometry relative="1" as="geometry">
            <mxPoint x="610" y="400" as="sourcePoint" />
            <mxPoint x="770" y="400" as="targetPoint" />
            <Array as="points">
              <mxPoint x="570" y="390" />
            </Array>
          </mxGeometry>
        </mxCell>
        <mxCell id="uW_plnHV8jiXRTv0YHAk-34" value="" style="endArrow=none;html=1;rounded=0;exitX=1;exitY=0.5;exitDx=0;exitDy=0;entryX=0.5;entryY=0.5;entryDx=0;entryDy=0;entryPerimeter=0;" edge="1" parent="1" source="uW_plnHV8jiXRTv0YHAk-10" target="uW_plnHV8jiXRTv0YHAk-23">
          <mxGeometry relative="1" as="geometry">
            <mxPoint x="610" y="400" as="sourcePoint" />
            <mxPoint x="770" y="400" as="targetPoint" />
            <Array as="points">
              <mxPoint x="570" y="480" />
            </Array>
          </mxGeometry>
        </mxCell>
        <mxCell id="uW_plnHV8jiXRTv0YHAk-35" value="&lt;div&gt;Gestionar / Ver&lt;br&gt;&lt;/div&gt;&lt;div&gt;Informaci칩n Hotel&lt;/div&gt;" style="ellipse;whiteSpace=wrap;html=1;aspect=fixed;" vertex="1" parent="1">
          <mxGeometry x="630" y="620" width="80" height="80" as="geometry" />
        </mxCell>
        <mxCell id="uW_plnHV8jiXRTv0YHAk-36" value="" style="endArrow=none;html=1;rounded=0;entryX=0.5;entryY=0.5;entryDx=0;entryDy=0;entryPerimeter=0;exitX=1;exitY=0;exitDx=0;exitDy=0;" edge="1" parent="1" source="uW_plnHV8jiXRTv0YHAk-35" target="uW_plnHV8jiXRTv0YHAk-23">
          <mxGeometry relative="1" as="geometry">
            <mxPoint x="840" y="540" as="sourcePoint" />
            <mxPoint x="770" y="400" as="targetPoint" />
          </mxGeometry>
        </mxCell>
        <mxCell id="uW_plnHV8jiXRTv0YHAk-38" value="&amp;lt;&amp;lt;include&amp;gt;&amp;gt;" style="endArrow=open;endSize=12;dashed=1;html=1;rounded=0;exitX=1;exitY=0.5;exitDx=0;exitDy=0;entryX=0;entryY=1;entryDx=0;entryDy=0;" edge="1" parent="1" source="uW_plnHV8jiXRTv0YHAk-6" target="uW_plnHV8jiXRTv0YHAk-29">
          <mxGeometry width="160" relative="1" as="geometry">
            <mxPoint x="480" y="530" as="sourcePoint" />
            <mxPoint x="605" y="680" as="targetPoint" />
          </mxGeometry>
        </mxCell>
        <mxCell id="uW_plnHV8jiXRTv0YHAk-39" value="Gestionar Reservas" style="ellipse;whiteSpace=wrap;html=1;aspect=fixed;" vertex="1" parent="1">
          <mxGeometry x="630" y="470" width="80" height="80" as="geometry" />
        </mxCell>
        <mxCell id="uW_plnHV8jiXRTv0YHAk-40" value="&amp;lt;&amp;lt;include&amp;gt;&amp;gt;" style="endArrow=open;endSize=12;dashed=1;html=1;rounded=0;exitX=0;exitY=0.5;exitDx=0;exitDy=0;entryX=0.963;entryY=0.413;entryDx=0;entryDy=0;entryPerimeter=0;" edge="1" parent="1" source="uW_plnHV8jiXRTv0YHAk-31" target="uW_plnHV8jiXRTv0YHAk-29">
          <mxGeometry width="160" relative="1" as="geometry">
            <mxPoint x="540" y="300" as="sourcePoint" />
            <mxPoint x="680" y="170" as="targetPoint" />
          </mxGeometry>
        </mxCell>
        <mxCell id="uW_plnHV8jiXRTv0YHAk-41" value="Arroja Error Credenciales" style="ellipse;whiteSpace=wrap;html=1;aspect=fixed;" vertex="1" parent="1">
          <mxGeometry x="430" y="150" width="80" height="80" as="geometry" />
        </mxCell>
        <mxCell id="uW_plnHV8jiXRTv0YHAk-42" value="&amp;lt;&amp;lt;exclude&amp;gt;&amp;gt;" style="endArrow=open;endSize=12;dashed=1;html=1;rounded=0;exitX=0;exitY=0.5;exitDx=0;exitDy=0;entryX=1;entryY=0.5;entryDx=0;entryDy=0;" edge="1" parent="1" source="uW_plnHV8jiXRTv0YHAk-41" target="uW_plnHV8jiXRTv0YHAk-6">
          <mxGeometry width="160" relative="1" as="geometry">
            <mxPoint x="473" y="240" as="sourcePoint" />
            <mxPoint x="350" y="243" as="targetPoint" />
          </mxGeometry>
        </mxCell>
        <mxCell id="uW_plnHV8jiXRTv0YHAk-43" value="&amp;lt;&amp;lt;exclude&amp;gt;&amp;gt;" style="endArrow=open;endSize=12;dashed=1;html=1;rounded=0;exitX=1;exitY=0.5;exitDx=0;exitDy=0;entryX=0;entryY=1;entryDx=0;entryDy=0;" edge="1" parent="1" source="uW_plnHV8jiXRTv0YHAk-41" target="uW_plnHV8jiXRTv0YHAk-31">
          <mxGeometry width="160" relative="1" as="geometry">
            <mxPoint x="780" y="180" as="sourcePoint" />
            <mxPoint x="640" y="210" as="targetPoint" />
          </mxGeometry>
        </mxCell>
        <mxCell id="uW_plnHV8jiXRTv0YHAk-45" value="Recuperar contrase침a" style="ellipse;whiteSpace=wrap;html=1;aspect=fixed;" vertex="1" parent="1">
          <mxGeometry x="580" y="210" width="80" height="80" as="geometry" />
        </mxCell>
        <mxCell id="uW_plnHV8jiXRTv0YHAk-46" value="&amp;lt;&amp;lt;include&amp;gt;&amp;gt;" style="endArrow=open;endSize=12;dashed=1;html=1;rounded=0;exitX=0;exitY=0.5;exitDx=0;exitDy=0;entryX=1;entryY=1;entryDx=0;entryDy=0;" edge="1" parent="1" source="uW_plnHV8jiXRTv0YHAk-45" target="uW_plnHV8jiXRTv0YHAk-41">
          <mxGeometry x="-0.1321" y="3" width="160" relative="1" as="geometry">
            <mxPoint x="480" y="420" as="sourcePoint" />
            <mxPoint x="620" y="380" as="targetPoint" />
            <mxPoint as="offset" />
          </mxGeometry>
        </mxCell>
        <mxCell id="uW_plnHV8jiXRTv0YHAk-47" value="Ver informaci칩n propia" style="ellipse;whiteSpace=wrap;html=1;aspect=fixed;" vertex="1" parent="1">
          <mxGeometry x="210" y="260" width="80" height="80" as="geometry" />
        </mxCell>
        <mxCell id="uW_plnHV8jiXRTv0YHAk-49" value="" style="endArrow=none;html=1;rounded=0;entryX=0;entryY=0.5;entryDx=0;entryDy=0;exitX=0.5;exitY=0.5;exitDx=0;exitDy=0;exitPerimeter=0;" edge="1" parent="1" source="uW_plnHV8jiXRTv0YHAk-1" target="uW_plnHV8jiXRTv0YHAk-47">
          <mxGeometry width="50" height="50" relative="1" as="geometry">
            <mxPoint x="140" y="490" as="sourcePoint" />
            <mxPoint x="315" y="340" as="targetPoint" />
          </mxGeometry>
        </mxCell>
      </root>
    </mxGraphModel>
  </diagram>
</mxfile>
